<svg width="380" height="78" viewBox="0 0 380 78" fill="none" xmlns="http://www.w3.org/2000/svg">
<g filter="url(#filter0_dd_12_2)">
<rect x="7" y="4" width="366" height="64" rx="10" fill="#FFE365"/>
<rect x="8" y="5" width="364" height="62" rx="9" stroke="black" stroke-width="2"/>
</g>
<path d="M9 14C9 9.58172 12.5817 6 17 6H48V66H17C12.5817 66 9 62.4183 9 58V14Z" fill="#003399"/>
<g clip-path="url(#clip0_12_2)">
<path d="M48 12H9V38H48V12Z" fill="#003399"/>
<path d="M28.5 14.8889L28.0536 16.2626L28.7405 16.4858L28.5 14.8889Z" fill="#FFCC00"/>
<path d="M28.5 14.8889L28.9464 16.2626L28.2595 16.4858L28.5 14.8889Z" fill="#FFCC00"/>
<path d="M29.8737 15.887L28.4293 15.887L28.4293 16.6092L29.8737 15.887Z" fill="#FFCC00"/>
<path d="M29.8738 15.8869L28.7052 16.736L28.2807 16.1517L29.8738 15.8869Z" fill="#FFCC00"/>
<path d="M29.349 17.5019L28.9026 16.1282L28.2158 16.3513L29.349 17.5019Z" fill="#FFCC00"/>
<path d="M29.3491 17.5019L28.1805 16.6529L28.605 16.0686L29.3491 17.5019Z" fill="#FFCC00"/>
<path d="M27.1263 15.887L28.5707 15.887L28.5707 16.6092L27.1263 15.887Z" fill="#FFCC00"/>
<path d="M27.1262 15.8869L28.2948 16.736L28.7193 16.1517L27.1262 15.8869Z" fill="#FFCC00"/>
<path d="M27.651 17.5019L28.0974 16.1282L28.7842 16.3513L27.651 17.5019Z" fill="#FFCC00"/>
<path d="M27.6509 17.5019L28.8195 16.6529L28.395 16.0686L27.6509 17.5019Z" fill="#FFCC00"/>
<path d="M28.5 32.2222L28.0536 33.596L28.7405 33.8191L28.5 32.2222Z" fill="#FFCC00"/>
<path d="M28.5 32.2222L28.9464 33.596L28.2595 33.8191L28.5 32.2222Z" fill="#FFCC00"/>
<path d="M29.8737 33.2203L28.4293 33.2203L28.4293 33.9425L29.8737 33.2203Z" fill="#FFCC00"/>
<path d="M29.8738 33.2203L28.7052 34.0693L28.2807 33.4851L29.8738 33.2203Z" fill="#FFCC00"/>
<path d="M29.349 34.8352L28.9026 33.4615L28.2158 33.6847L29.349 34.8352Z" fill="#FFCC00"/>
<path d="M29.3491 34.8352L28.1805 33.9862L28.605 33.4019L29.3491 34.8352Z" fill="#FFCC00"/>
<path d="M27.1263 33.2203L28.5707 33.2203L28.5707 33.9425L27.1263 33.2203Z" fill="#FFCC00"/>
<path d="M27.1262 33.2203L28.2948 34.0693L28.7193 33.4851L27.1262 33.2203Z" fill="#FFCC00"/>
<path d="M27.651 34.8352L28.0974 33.4615L28.7842 33.6847L27.651 34.8352Z" fill="#FFCC00"/>
<path d="M27.6509 34.8352L28.8195 33.9862L28.395 33.4019L27.6509 34.8352Z" fill="#FFCC00"/>
<path d="M19.8333 23.5555L19.387 24.9293L20.0738 25.1525L19.8333 23.5555Z" fill="#FFCC00"/>
<path d="M19.8333 23.5555L20.2797 24.9293L19.5928 25.1525L19.8333 23.5555Z" fill="#FFCC00"/>
<path d="M21.207 24.5536L19.7626 24.5536L19.7626 25.2758L21.207 24.5536Z" fill="#FFCC00"/>
<path d="M21.2071 24.5536L20.0385 25.4026L19.614 24.8184L21.2071 24.5536Z" fill="#FFCC00"/>
<path d="M20.6823 26.1686L20.236 24.7948L19.5491 25.018L20.6823 26.1686Z" fill="#FFCC00"/>
<path d="M20.6824 26.1686L19.5138 25.3195L19.9383 24.7353L20.6824 26.1686Z" fill="#FFCC00"/>
<path d="M18.4596 24.5536L19.904 24.5536L19.904 25.2758L18.4596 24.5536Z" fill="#FFCC00"/>
<path d="M18.4595 24.5536L19.6281 25.4026L20.0526 24.8184L18.4595 24.5536Z" fill="#FFCC00"/>
<path d="M18.9843 26.1686L19.4307 24.7948L20.1175 25.018L18.9843 26.1686Z" fill="#FFCC00"/>
<path d="M18.9843 26.1686L20.1528 25.3195L19.7283 24.7353L18.9843 26.1686Z" fill="#FFCC00"/>
<path d="M23.3176 18.663L24.4862 17.814L24.0617 17.2297L23.3176 18.663Z" fill="#FFCC00"/>
<path d="M23.3177 18.663L23.764 17.2893L24.4509 17.5125L23.3177 18.663Z" fill="#FFCC00"/>
<path d="M22.793 17.0481L23.9615 17.8971L24.3861 17.3128L22.793 17.0481Z" fill="#FFCC00"/>
<path d="M22.793 17.0481L24.2374 17.0481L24.2374 17.7703L22.793 17.0481Z" fill="#FFCC00"/>
<path d="M24.1667 16.05L23.7203 17.4237L24.4072 17.6469L24.1667 16.05Z" fill="#FFCC00"/>
<path d="M24.1667 16.05L24.613 17.4237L23.9262 17.6469L24.1667 16.05Z" fill="#FFCC00"/>
<path d="M25.0159 18.6631L23.8474 17.8141L24.2719 17.2298L25.0159 18.6631Z" fill="#FFCC00"/>
<path d="M25.0159 18.6631L24.5696 17.2894L23.8827 17.5125L25.0159 18.6631Z" fill="#FFCC00"/>
<path d="M25.5404 17.0481L24.3718 17.8971L23.9473 17.3128L25.5404 17.0481Z" fill="#FFCC00"/>
<path d="M25.5404 17.0481L24.096 17.0481L24.096 17.7703L25.5404 17.0481Z" fill="#FFCC00"/>
<path d="M21.8434 21.8352L21.3971 20.4615L20.7102 20.6847L21.8434 21.8352Z" fill="#FFCC00"/>
<path d="M21.8435 21.8352L20.6749 20.9862L21.0994 20.4019L21.8435 21.8352Z" fill="#FFCC00"/>
<path d="M20.1452 21.8353L21.3138 20.9863L20.8893 20.402L20.1452 21.8353Z" fill="#FFCC00"/>
<path d="M20.1452 21.8353L20.5916 20.4616L21.2784 20.6848L20.1452 21.8353Z" fill="#FFCC00"/>
<path d="M19.6207 20.2203L20.7893 21.0693L21.2138 20.485L19.6207 20.2203Z" fill="#FFCC00"/>
<path d="M19.6207 20.2203L21.0652 20.2203L21.0652 20.9425L19.6207 20.2203Z" fill="#FFCC00"/>
<path d="M22.3682 20.2203L21.1996 21.0693L20.7751 20.485L22.3682 20.2203Z" fill="#FFCC00"/>
<path d="M22.3682 20.2203L20.9237 20.2203L20.9237 20.9425L22.3682 20.2203Z" fill="#FFCC00"/>
<path d="M20.9944 19.2222L21.4408 20.596L20.7539 20.8191L20.9944 19.2222Z" fill="#FFCC00"/>
<path d="M20.9944 19.2222L20.5481 20.596L21.235 20.8191L20.9944 19.2222Z" fill="#FFCC00"/>
<path d="M22.3682 28.887L20.9237 28.887L20.9237 29.6092L22.3682 28.887Z" fill="#FFCC00"/>
<path d="M22.3682 28.8869L21.1997 29.736L20.7751 29.1517L22.3682 28.8869Z" fill="#FFCC00"/>
<path d="M21.8434 30.5019L21.3971 29.1281L20.7102 29.3513L21.8434 30.5019Z" fill="#FFCC00"/>
<path d="M21.8435 30.5019L20.6749 29.6529L21.0994 29.0686L21.8435 30.5019Z" fill="#FFCC00"/>
<path d="M20.1454 30.5019L21.314 29.6528L20.8895 29.0686L20.1454 30.5019Z" fill="#FFCC00"/>
<path d="M20.1454 30.5019L20.5917 29.1281L21.2787 29.3513L20.1454 30.5019Z" fill="#FFCC00"/>
<path d="M20.9944 27.8889L21.4409 29.2626L20.754 29.4858L20.9944 27.8889Z" fill="#FFCC00"/>
<path d="M20.9944 27.8889L20.5481 29.2627L21.2351 29.4858L20.9944 27.8889Z" fill="#FFCC00"/>
<path d="M19.6207 28.8871L21.0651 28.887L21.0652 29.6091L19.6207 28.8871Z" fill="#FFCC00"/>
<path d="M19.6207 28.887L20.7894 29.736L21.2138 29.1516L19.6207 28.887Z" fill="#FFCC00"/>
<path d="M25.5403 32.0592L24.0959 32.0592L24.0959 32.7814L25.5403 32.0592Z" fill="#FFCC00"/>
<path d="M25.5404 32.0592L24.3719 32.9082L23.9473 32.3239L25.5404 32.0592Z" fill="#FFCC00"/>
<path d="M25.0156 33.6741L24.5692 32.3004L23.8824 32.5236L25.0156 33.6741Z" fill="#FFCC00"/>
<path d="M25.0157 33.6741L23.8471 32.8251L24.2715 32.2408L25.0157 33.6741Z" fill="#FFCC00"/>
<path d="M23.3176 33.6741L24.4862 32.8251L24.0616 32.2408L23.3176 33.6741Z" fill="#FFCC00"/>
<path d="M23.3176 33.6742L23.7639 32.3004L24.4509 32.5235L23.3176 33.6742Z" fill="#FFCC00"/>
<path d="M24.1666 31.0611L24.613 32.4348L23.9262 32.658L24.1666 31.0611Z" fill="#FFCC00"/>
<path d="M24.1666 31.0611L23.7203 32.4349L24.4073 32.658L24.1666 31.0611Z" fill="#FFCC00"/>
<path d="M22.7929 32.0593L24.2373 32.0592L24.2374 32.7813L22.7929 32.0593Z" fill="#FFCC00"/>
<path d="M22.7929 32.0592L23.9615 32.9082L24.386 32.3239L22.7929 32.0592Z" fill="#FFCC00"/>
<path d="M37.1666 23.5555L37.613 24.9293L36.9261 25.1525L37.1666 23.5555Z" fill="#FFCC00"/>
<path d="M37.1666 23.5555L36.7203 24.9293L37.4071 25.1525L37.1666 23.5555Z" fill="#FFCC00"/>
<path d="M35.7929 24.5536L37.2373 24.5536L37.2373 25.2758L35.7929 24.5536Z" fill="#FFCC00"/>
<path d="M35.7928 24.5536L36.9614 25.4026L37.3859 24.8184L35.7928 24.5536Z" fill="#FFCC00"/>
<path d="M36.3176 26.1686L36.764 24.7948L37.4509 25.018L36.3176 26.1686Z" fill="#FFCC00"/>
<path d="M36.3176 26.1686L37.4861 25.3195L37.0616 24.7353L36.3176 26.1686Z" fill="#FFCC00"/>
<path d="M38.5403 24.5536L37.0959 24.5536L37.0959 25.2758L38.5403 24.5536Z" fill="#FFCC00"/>
<path d="M38.5404 24.5536L37.3718 25.4026L36.9473 24.8184L38.5404 24.5536Z" fill="#FFCC00"/>
<path d="M38.0156 26.1686L37.5693 24.7948L36.8824 25.018L38.0156 26.1686Z" fill="#FFCC00"/>
<path d="M38.0157 26.1686L36.8471 25.3195L37.2716 24.7353L38.0157 26.1686Z" fill="#FFCC00"/>
<path d="M33.6823 18.663L32.5137 17.814L32.9382 17.2297L33.6823 18.663Z" fill="#FFCC00"/>
<path d="M33.6823 18.663L33.2359 17.2893L32.549 17.5125L33.6823 18.663Z" fill="#FFCC00"/>
<path d="M34.207 17.0481L33.0384 17.8971L32.6139 17.3128L34.207 17.0481Z" fill="#FFCC00"/>
<path d="M34.207 17.0481L32.7625 17.0481L32.7625 17.7703L34.207 17.0481Z" fill="#FFCC00"/>
<path d="M32.8333 16.05L33.2796 17.4237L32.5927 17.6469L32.8333 16.05Z" fill="#FFCC00"/>
<path d="M32.8333 16.05L32.3869 17.4237L33.0738 17.6469L32.8333 16.05Z" fill="#FFCC00"/>
<path d="M31.984 18.6631L33.1526 17.8141L32.7281 17.2298L31.984 18.6631Z" fill="#FFCC00"/>
<path d="M31.984 18.6631L32.4304 17.2894L33.1172 17.5125L31.984 18.6631Z" fill="#FFCC00"/>
<path d="M31.4595 17.0481L32.6281 17.8971L33.0526 17.3128L31.4595 17.0481Z" fill="#FFCC00"/>
<path d="M31.4595 17.0481L32.904 17.0481L32.904 17.7703L31.4595 17.0481Z" fill="#FFCC00"/>
<path d="M35.1565 21.8352L35.6029 20.4615L36.2897 20.6847L35.1565 21.8352Z" fill="#FFCC00"/>
<path d="M35.1564 21.8352L36.325 20.9862L35.9005 20.4019L35.1564 21.8352Z" fill="#FFCC00"/>
<path d="M36.8547 21.8353L35.6862 20.9863L36.1107 20.402L36.8547 21.8353Z" fill="#FFCC00"/>
<path d="M36.8547 21.8353L36.4084 20.4616L35.7215 20.6848L36.8547 21.8353Z" fill="#FFCC00"/>
<path d="M37.3792 20.2203L36.2106 21.0693L35.7861 20.485L37.3792 20.2203Z" fill="#FFCC00"/>
<path d="M37.3792 20.2203L35.9348 20.2203L35.9348 20.9425L37.3792 20.2203Z" fill="#FFCC00"/>
<path d="M34.6318 20.2203L35.8004 21.0693L36.2249 20.485L34.6318 20.2203Z" fill="#FFCC00"/>
<path d="M34.6318 20.2203L36.0762 20.2203L36.0762 20.9425L34.6318 20.2203Z" fill="#FFCC00"/>
<path d="M36.0055 19.2222L35.5591 20.596L36.246 20.8191L36.0055 19.2222Z" fill="#FFCC00"/>
<path d="M36.0055 19.2222L36.4518 20.596L35.765 20.8191L36.0055 19.2222Z" fill="#FFCC00"/>
<path d="M34.6318 28.887L36.0762 28.887L36.0762 29.6092L34.6318 28.887Z" fill="#FFCC00"/>
<path d="M34.6317 28.8869L35.8003 29.736L36.2248 29.1517L34.6317 28.8869Z" fill="#FFCC00"/>
<path d="M35.1565 30.5019L35.6029 29.1281L36.2897 29.3513L35.1565 30.5019Z" fill="#FFCC00"/>
<path d="M35.1564 30.5019L36.3251 29.6529L35.9006 29.0686L35.1564 30.5019Z" fill="#FFCC00"/>
<path d="M36.8545 30.5019L35.6859 29.6528L36.1105 29.0686L36.8545 30.5019Z" fill="#FFCC00"/>
<path d="M36.8545 30.5019L36.4082 29.1281L35.7213 29.3513L36.8545 30.5019Z" fill="#FFCC00"/>
<path d="M36.0055 27.8889L35.5591 29.2626L36.2459 29.4858L36.0055 27.8889Z" fill="#FFCC00"/>
<path d="M36.0056 27.8889L36.4518 29.2627L35.7648 29.4858L36.0056 27.8889Z" fill="#FFCC00"/>
<path d="M37.3792 28.8871L35.9348 28.887L35.9348 29.6091L37.3792 28.8871Z" fill="#FFCC00"/>
<path d="M37.3792 28.887L36.2106 29.736L35.7861 29.1516L37.3792 28.887Z" fill="#FFCC00"/>
<path d="M31.4596 32.0592L32.904 32.0592L32.904 32.7814L31.4596 32.0592Z" fill="#FFCC00"/>
<path d="M31.4595 32.0592L32.6281 32.9082L33.0526 32.3239L31.4595 32.0592Z" fill="#FFCC00"/>
<path d="M31.9843 33.6741L32.4307 32.3004L33.1175 32.5236L31.9843 33.6741Z" fill="#FFCC00"/>
<path d="M31.9843 33.6741L33.1529 32.8251L32.7284 32.2408L31.9843 33.6741Z" fill="#FFCC00"/>
<path d="M33.6823 33.6741L32.5138 32.8251L32.9383 32.2408L33.6823 33.6741Z" fill="#FFCC00"/>
<path d="M33.6823 33.6742L33.236 32.3004L32.5491 32.5235L33.6823 33.6742Z" fill="#FFCC00"/>
<path d="M32.8333 31.0611L32.3869 32.4348L33.0737 32.658L32.8333 31.0611Z" fill="#FFCC00"/>
<path d="M32.8334 31.0611L33.2796 32.4349L32.5927 32.658L32.8334 31.0611Z" fill="#FFCC00"/>
<path d="M34.207 32.0593L32.7626 32.0592L32.7626 32.7813L34.207 32.0593Z" fill="#FFCC00"/>
<path d="M34.207 32.0592L33.0384 32.9082L32.6139 32.3239L34.207 32.0592Z" fill="#FFCC00"/>
</g>
<path d="M29.988 56H27.468L21.762 47.378V56H19.242V43.418H21.762L27.468 52.058V43.418H29.988V56ZM34.9983 54.002H39.1383V56H32.4783V43.436H34.9983V54.002Z" fill="white"/>
<defs>
<filter id="filter0_dd_12_2" x="0" y="0" width="380" height="78" filterUnits="userSpaceOnUse" color-interpolation-filters="sRGB">
<feFlood flood-opacity="0" result="BackgroundImageFix"/>
<feColorMatrix in="SourceAlpha" type="matrix" values="0 0 0 0 0 0 0 0 0 0 0 0 0 0 0 0 0 0 127 0" result="hardAlpha"/>
<feMorphology radius="1" operator="erode" in="SourceAlpha" result="effect1_dropShadow_12_2"/>
<feOffset dy="3"/>
<feGaussianBlur stdDeviation="4"/>
<feColorMatrix type="matrix" values="0 0 0 0 0.196078 0 0 0 0 0.196078 0 0 0 0 0.278431 0 0 0 0.05 0"/>
<feBlend mode="normal" in2="BackgroundImageFix" result="effect1_dropShadow_12_2"/>
<feColorMatrix in="SourceAlpha" type="matrix" values="0 0 0 0 0 0 0 0 0 0 0 0 0 0 0 0 0 0 127 0" result="hardAlpha"/>
<feOffset/>
<feGaussianBlur stdDeviation="0.5"/>
<feColorMatrix type="matrix" values="0 0 0 0 0.0470588 0 0 0 0 0.101961 0 0 0 0 0.294118 0 0 0 0.24 0"/>
<feBlend mode="normal" in2="effect1_dropShadow_12_2" result="effect2_dropShadow_12_2"/>
<feBlend mode="normal" in="SourceGraphic" in2="effect2_dropShadow_12_2" result="shape"/>
</filter>
<clipPath id="clip0_12_2">
<rect width="39" height="26" fill="white" transform="translate(9 12)"/>
</clipPath>
</defs>
</svg>
