<svg id="katman_1" data-name="katman 1" xmlns="http://www.w3.org/2000/svg" viewBox="0 0 286.91 96.3"><defs><style>.cls-1{font-size:78.55px;font-family:Impact;}.cls-1,.cls-3{fill:#850e0a;}.cls-2{letter-spacing:-0.06em;}.cls-4{fill:#fff;}.cls-5{fill:#0b1184;}</style></defs><text class="cls-1" transform="translate(0 70.34)">C<tspan class="cls-2" x="43.49" y="0">A</tspan><tspan x="79.04" y="0">TCH</tspan></text><path class="cls-3" d="M248,13.3V41.44L245.22,33l-6.38-19.7H225.25V75.8h13.59V47.39L241.1,55l6.19,20.8h14.25V13.3Z" transform="translate(-7.29 -5.34)"/><path class="cls-3" d="M284.32,63.29v-50H268.06V75.8H294.2V63.29Z" transform="translate(-7.29 -5.34)"/><polygon class="cls-4" points="254.25 27.66 254.25 49.66 233.81 49.66 231.55 42.05 231.55 49.66 217.71 49.66 217.71 27.66 237.93 27.66 240.66 36.1 240.66 27.66 254.25 27.66"/><rect class="cls-4" x="260.77" y="27.66" width="16.26" height="22"/><rect class="cls-5" x="217.96" y="49.66" width="13.59" height="20.8"/><polygon class="cls-5" points="233.81 49.66 254.25 49.66 254.25 70.46 240 70.46 233.81 49.66"/><polygon class="cls-5" points="286.91 57.95 286.91 70.46 260.77 70.46 260.77 49.66 277.03 49.66 277.03 57.95 286.91 57.95"/></svg>